<svg width="20" height="18" viewBox="0 0 20 18" xmlns="http://www.w3.org/2000/svg">
<path fill-rule="evenodd" clip-rule="evenodd" d="M6.02531 1.60001C5.43269 1.59578 4.84577 1.71568 4.30242 1.95197C3.76032 2.18771 3.2736 2.53406 2.87348 2.96874C2.03394 3.90984 1.57974 5.13207 1.60111 6.39236C1.63941 7.8741 2.21702 9.29121 3.22597 10.3783L3.23056 10.3832C4.58433 11.8751 6.05636 13.2555 7.63238 14.5108L7.64002 14.5169L7.67087 14.5431C8.28343 15.0645 8.98069 15.6579 9.70053 16.2872C9.78364 16.3599 9.89042 16.3999 10.001 16.3999L10.0013 16.9999L10.0025 16.3999C10.1132 16.4001 10.2201 16.3602 10.3034 16.2877C11.0358 15.648 11.7404 15.0477 12.3596 14.5205L12.3671 14.5142L12.3747 14.5081C13.9494 13.2535 15.4202 11.8741 16.773 10.3833L16.7773 10.3785C17.7854 9.29108 18.3622 7.87397 18.3997 6.3925C18.4211 5.13214 17.9669 3.90985 17.1273 2.96872C16.7272 2.53404 16.2405 2.1877 15.6984 1.95197C15.155 1.71568 14.5681 1.59578 13.9755 1.60001L13.9689 1.60006C13.0792 1.59672 12.2147 1.89523 11.5171 2.44666L11.5143 2.44885C11.1232 2.75429 10.7779 3.11422 10.4892 3.51764L10.0009 4.19994L9.51311 3.51725C9.2247 3.1136 8.87977 2.75339 8.48886 2.44766L8.48658 2.44588C7.78818 1.89422 6.92281 1.59593 6.03235 1.60002L6.02531 1.60001ZM10.0001 17.5999C9.5995 17.5997 9.21242 17.4544 8.91074 17.1907C8.1969 16.5666 7.50473 15.9775 6.89106 15.4552L6.87708 15.4433C5.25432 14.1501 3.73842 12.7284 2.34407 11.1921C1.1373 9.89063 0.446579 8.19424 0.401439 6.42047L0.401336 6.41566C0.374054 4.85086 0.938336 3.3334 1.98144 2.16606L1.98696 2.15989C2.50106 1.60029 3.12685 1.15463 3.82387 0.851517C4.51982 0.548875 5.27142 0.395091 6.03036 0.400017C7.19082 0.39548 8.31859 0.784394 9.22927 1.50331C9.50632 1.72009 9.76461 1.95911 10.0017 2.21778C10.2389 1.95939 10.4972 1.72065 10.7743 1.50414C11.6841 0.785588 12.8107 0.396413 13.9702 0.400019C14.7292 0.395056 15.4809 0.548841 16.1769 0.851517C16.8739 1.15463 17.4997 1.60033 18.0138 2.15993L18.0194 2.16602C19.0625 3.33336 19.6267 4.85086 19.5994 6.41566L19.5994 6.42017C19.5551 8.19364 18.8654 9.89006 17.6596 11.1919C16.2663 12.7272 14.7516 14.148 13.1301 15.4405C12.5123 15.9665 11.8157 16.56 11.0926 17.1917C10.79 17.4553 10.4014 17.6007 10.0001 17.5999Z"/>
</svg>
