<svg width="18" height="22" viewBox="0 0 18 22" xmlns="http://www.w3.org/2000/svg">
<path d="M8.99976 15.2C5.03075 15.2 1.75413 18.1645 1.26326 22H0.0546875C0.552132 17.5 4.3672 14 8.99976 14C13.6323 14 17.4474 17.5 17.9448 22H16.7363C16.2454 18.1645 12.9688 15.2 8.99976 15.2Z"/>
<path fill-rule="evenodd" clip-rule="evenodd" d="M9 9.8C10.5464 9.8 11.8 8.5464 11.8 7C11.8 5.4536 10.5464 4.2 9 4.2C7.4536 4.2 6.2 5.4536 6.2 7C6.2 8.5464 7.4536 9.8 9 9.8ZM9 11C11.2091 11 13 9.20914 13 7C13 4.79086 11.2091 3 9 3C6.79086 3 5 4.79086 5 7C5 9.20914 6.79086 11 9 11Z"/>
</svg>
