<svg width="20" height="24" viewBox="0 0 20 24" xmlns="http://www.w3.org/2000/svg">
<path fill-rule="evenodd" clip-rule="evenodd" d="M14.5048 0.505074C14.7782 0.231707 15.2214 0.231707 15.4948 0.505074L19.4948 4.50507C19.7681 4.77844 19.7681 5.22166 19.4948 5.49502L15.4948 9.49502C15.2214 9.76839 14.7782 9.76839 14.5048 9.49502C14.2315 9.22166 14.2315 8.77844 14.5048 8.50507L18.0099 5.00005L14.5048 1.49502C14.2315 1.22166 14.2315 0.778441 14.5048 0.505074Z"/>
<path fill-rule="evenodd" clip-rule="evenodd" d="M4.9998 5.70005C4.12459 5.70005 3.28522 6.04773 2.66635 6.6666C2.04748 7.28547 1.6998 8.12483 1.6998 9.00005V11C1.6998 11.3866 1.3864 11.7 0.999805 11.7C0.613205 11.7 0.299805 11.3866 0.299805 11V9.00005C0.299805 7.75353 0.794982 6.55807 1.6764 5.67665C2.55782 4.79523 3.75329 4.30005 4.9998 4.30005H18.9998C19.3864 4.30005 19.6998 4.61345 19.6998 5.00005C19.6998 5.38665 19.3864 5.70005 18.9998 5.70005H4.9998Z"/>
<path fill-rule="evenodd" clip-rule="evenodd" d="M5.49478 14.5051C5.76815 14.7784 5.76815 15.2217 5.49478 15.495L1.98975 19L5.49478 22.5051C5.76815 22.7784 5.76815 23.2217 5.49478 23.495C5.22141 23.7684 4.7782 23.7684 4.50483 23.495L0.50483 19.495C0.231463 19.2217 0.231463 18.7784 0.50483 18.5051L4.50483 14.5051C4.7782 14.2317 5.22141 14.2317 5.49478 14.5051Z"/>
<path fill-rule="evenodd" clip-rule="evenodd" d="M18.9998 12.3C19.3864 12.3 19.6998 12.6134 19.6998 13V15C19.6998 16.2466 19.2046 17.442 18.3232 18.3234C17.4418 19.2049 16.2463 19.7 14.9998 19.7H0.999805C0.613205 19.7 0.299805 19.3866 0.299805 19C0.299805 18.6134 0.613205 18.3 0.999805 18.3H14.9998C15.875 18.3 16.7144 17.9524 17.3333 17.3335C17.9521 16.7146 18.2998 15.8753 18.2998 15V13C18.2998 12.6134 18.6132 12.3 18.9998 12.3Z"/>
</svg>
