<svg width="18" height="18" viewBox="0 0 18 18" xmlns="http://www.w3.org/2000/svg">
<path fill-rule="evenodd" clip-rule="evenodd" d="M8.16647 2.20005C4.87117 2.20005 2.1998 4.87142 2.1998 8.16672C2.1998 11.462 4.87117 14.1334 8.16647 14.1334C11.4618 14.1334 14.1331 11.462 14.1331 8.16672C14.1331 4.87142 11.4618 2.20005 8.16647 2.20005ZM0.799805 8.16672C0.799805 4.09822 4.09797 0.800049 8.16647 0.800049C12.235 0.800049 15.5331 4.09822 15.5331 8.16672C15.5331 12.2352 12.235 15.5334 8.16647 15.5334C4.09797 15.5334 0.799805 12.2352 0.799805 8.16672Z"/>
<path fill-rule="evenodd" clip-rule="evenodd" d="M12.3798 12.3801C12.6532 12.1067 13.0964 12.1067 13.3698 12.3801L16.9948 16.0051C17.2681 16.2784 17.2681 16.7217 16.9948 16.995C16.7214 17.2684 16.2782 17.2684 16.0048 16.995L12.3798 13.37C12.1065 13.0967 12.1065 12.6534 12.3798 12.3801Z"/>
</svg>
