<svg width="14" height="14" viewBox="0 0 14 14" xmlns="http://www.w3.org/2000/svg">
<path fill-rule="evenodd" clip-rule="evenodd" d="M13.4948 0.505074C13.7681 0.778441 13.7681 1.22166 13.4948 1.49502L1.49478 13.495C1.22141 13.7684 0.778197 13.7684 0.50483 13.495C0.231463 13.2217 0.231463 12.7784 0.50483 12.5051L12.5048 0.505074C12.7782 0.231707 13.2214 0.231707 13.4948 0.505074Z"/>
<path fill-rule="evenodd" clip-rule="evenodd" d="M0.50483 0.505074C0.778197 0.231707 1.22141 0.231707 1.49478 0.505074L13.4948 12.5051C13.7681 12.7784 13.7681 13.2217 13.4948 13.495C13.2214 13.7684 12.7782 13.7684 12.5048 13.495L0.50483 1.49502C0.231463 1.22166 0.231463 0.778441 0.50483 0.505074Z"/>
</svg>
